HIERARCHY
ROOT SimulationBone
{
	OFFSET 0.000000 0.000000 0.000000
	CHANNELS 6 Xposition Yposition Zposition Zrotation Yrotation Xrotation 
	JOINT Hips
	{
		OFFSET 0.000000 0.000000 0.000000
		CHANNELS 6 Xposition Yposition Zposition Zrotation Yrotation Xrotation 
		JOINT RightUpLeg
		{
			OFFSET 0.103457 1.857818 10.548502
			CHANNELS 3 Zrotation Yrotation Xrotation
			JOINT RightLeg
			{
				OFFSET 43.500000 -0.000011 -0.000004
				CHANNELS 3 Zrotation Yrotation Xrotation
				JOINT RightFoot
				{
					OFFSET 42.372192 -0.000004 -0.000008
					CHANNELS 3 Zrotation Yrotation Xrotation
					JOINT RightToe
					{
						OFFSET 17.300014 0.000006 0.000001
						CHANNELS 3 Zrotation Yrotation Xrotation
						End Site
						{
							OFFSET 0.000000 0.000000 0.000000
						}
					}
				}
			}
		}
		JOINT LeftUpLeg
		{
			OFFSET 0.103457 1.857817 -10.548505
			CHANNELS 3 Zrotation Yrotation Xrotation
			JOINT LeftLeg
			{
				OFFSET 43.500046 -0.000004 0.000011
				CHANNELS 3 Zrotation Yrotation Xrotation
				JOINT LeftFoot
				{
					OFFSET 42.372257 0.000000 0.000015
					CHANNELS 3 Zrotation Yrotation Xrotation
					JOINT LeftToe
					{
						OFFSET 17.300003 -0.000000 0.000002
						CHANNELS 3 Zrotation Yrotation Xrotation
						End Site
						{
							OFFSET 0.000000 0.000000 0.000000
						}
					}
				}
			}
		}
		JOINT Spine
		{
			OFFSET 6.901961 -2.603721 -0.000001
			CHANNELS 3 Zrotation Yrotation Xrotation
			JOINT Spine1
			{
				OFFSET 12.588108 0.000002 -0.000001
				CHANNELS 3 Zrotation Yrotation Xrotation
				JOINT Spine2
				{
					OFFSET 12.343199 -0.000020 0.000006
					CHANNELS 3 Zrotation Yrotation Xrotation
					JOINT Neck
					{
						OFFSET 25.832905 0.000017 0.000000
						CHANNELS 3 Zrotation Yrotation Xrotation
						JOINT Head
						{
							OFFSET 11.766604 -0.000006 0.000004
							CHANNELS 3 Zrotation Yrotation Xrotation
							End Site
							{
								OFFSET 0.000000 0.000000 0.000000
							}
						}
					}
					JOINT RightShoulder
					{
						OFFSET 19.745903 -1.480350 6.000100
						CHANNELS 3 Zrotation Yrotation Xrotation
						JOINT RightArm
						{
							OFFSET 11.284130 -0.000016 -0.000016
							CHANNELS 3 Zrotation Yrotation Xrotation
							JOINT RightForeArm
							{
								OFFSET 33.000046 0.000004 0.000031
								CHANNELS 3 Zrotation Yrotation Xrotation
								JOINT RightHand
								{
									OFFSET 25.199999 0.000027 0.000001
									CHANNELS 3 Zrotation Yrotation Xrotation
									End Site
									{
										OFFSET 0.000000 0.000000 0.000000
									}
								}
							}
						}
					}
					JOINT LeftShoulder
					{
						OFFSET 19.746094 -1.480375 -6.000080
						CHANNELS 3 Zrotation Yrotation Xrotation
						JOINT LeftArm
						{
							OFFSET 11.284131 -0.000016 -0.000017
							CHANNELS 3 Zrotation Yrotation Xrotation
							JOINT LeftForeArm
							{
								OFFSET 33.000095 0.000009 0.000020
								CHANNELS 3 Zrotation Yrotation Xrotation
								JOINT LeftHand
								{
									OFFSET 25.199789 0.000132 0.000423
									CHANNELS 3 Zrotation Yrotation Xrotation
									End Site
									{
										OFFSET 0.000000 0.000000 0.000000
									}
								}
							}
						}
					}
				}
			}
		}
	}
}
MOTION
Frames: 13
Frame Time: 0.016667
273.453754 0.000000 -414.605715 0.000000 61.788743 0.000000 -4.175447 77.246658 0.334400 93.461110 -1.595531 -175.172418 135.959914 -3.315498 163.310178 -33.040776 0.131548 -7.325856 70.512024 5.253916 -0.127445 21.454560 0.003104 0.000018 176.476925 -1.034500 164.587751 -80.456711 -0.655801 -5.259737 71.136740 5.718376 5.534720 21.454553 -0.003090 0.000002 12.388583 -0.550464 -0.620054 14.770714 -1.017071 -1.305395 14.452655 -1.025075 -1.299237 23.776502 11.996538 15.858972 -18.456382 -24.016554 25.570863 -165.261480 -70.121014 -16.551520 18.443805 50.971095 34.144111 -89.057954 -5.009747 2.655098 -26.204066 -8.289071 47.210181 -163.585009 80.421468 18.229006 -10.928547 -49.984662 -3.132539 -122.268390 0.188611 -3.711655 -3.136353 4.438542 -28.322466 
274.001219 0.000000 -417.824960 0.000000 63.163328 0.000000 -3.346913 76.563287 -0.031948 94.698506 -1.975178 -176.579410 136.086017 -2.862486 163.750571 -38.209502 -0.138160 -6.371717 65.131533 6.459086 4.632095 21.454555 0.003108 0.000018 177.070131 -0.457208 164.839672 -83.493952 -1.368694 -5.646355 73.279091 6.207263 6.454492 21.454537 -0.003091 0.000006 12.291866 -0.732386 -0.698077 14.580834 -1.370769 -1.483067 14.262744 -1.379840 -1.474773 24.037782 10.844830 16.107133 -18.153913 -24.077248 25.805049 -164.024990 -69.854588 -17.828942 19.427144 50.840077 33.700364 -89.972790 -4.355150 2.654102 -25.559716 -7.858163 46.809998 -166.104334 80.814912 15.670507 -11.433286 -50.160493 -2.315913 -125.767452 0.189053 -3.850526 -3.845582 4.163556 -30.212393 
274.516487 0.000000 -421.049606 0.000000 64.556641 0.000000 -2.504472 75.972000 -0.365360 96.050600 -2.460098 -177.960312 136.320753 -2.350218 164.418964 -44.377497 -0.778266 -6.392707 65.698147 7.227270 6.812336 21.454557 0.003110 0.000017 177.258613 0.151501 165.193234 -86.618368 -2.065207 -4.946750 74.895065 5.837399 7.152715 21.454541 -0.003093 0.000005 12.305439 -0.938364 -0.773232 14.612677 -1.771316 -1.659088 14.294549 -1.781442 -1.648372 23.657685 9.765806 16.328641 -18.015903 -24.124485 26.087618 -164.038562 -69.308235 -17.819580 18.787980 50.570498 31.823380 -90.419409 -3.955201 2.642110 -25.035560 -8.250095 45.682459 -170.419912 80.814245 11.292987 -11.906979 -50.390317 -0.928080 -129.009705 0.240536 -3.974511 -5.430033 4.274004 -32.401740 
275.000466 0.000000 -424.277170 0.000000 65.968170 0.000000 -1.691360 75.481064 -0.654076 97.436930 -2.948902 -179.275329 136.853955 -1.735850 164.966720 -50.676250 -1.515480 -6.835836 69.779017 7.430081 7.453833 21.454560 0.003110 0.000017 176.946771 0.690734 165.575828 -89.734680 -2.647164 -3.535930 75.976930 4.890404 7.556864 21.454552 -0.003096 0.000001 12.391412 -1.142678 -0.837354 14.789895 -2.168662 -1.814376 14.471718 -2.179717 -1.801258 22.881089 8.784827 16.525463 -17.992974 -24.165550 26.379908 -165.030937 -68.617563 -16.799552 16.754246 50.176041 28.907682 -90.400515 -3.850703 2.631731 -24.630076 -9.094560 44.340855 -175.099342 80.464751 6.543060 -12.287581 -50.733096 0.637525 -131.684903 0.333168 -4.077686 -7.534787 4.649022 -34.634309 
275.454062 0.000000 -427.505172 0.000000 67.397316 0.000000 -0.951898 75.098747 -0.890627 98.766415 -3.350404 179.521196 137.868638 -0.972702 165.051644 -56.219802 -1.968062 -7.241064 74.998618 7.304933 7.476870 21.454563 0.003109 0.000017 176.036187 1.061401 165.915144 -92.732951 -3.060879 -1.796874 76.534734 3.642260 7.624725 21.454562 -0.003098 -0.000001 12.511775 -1.319751 -0.881970 15.035574 -2.513402 -1.928626 14.717340 -2.525137 -1.913423 21.950959 7.924864 16.688232 -18.035698 -24.207991 26.643100 -166.730722 -67.901879 -15.045087 13.558709 49.642295 25.354097 -89.918224 -4.082384 2.628632 -24.362125 -10.031216 43.310884 -178.856604 79.865710 2.720971 -12.512378 -51.253964 1.986538 -133.479203 0.458417 -4.150908 -9.796654 5.210204 -36.652222 
275.878182 0.000000 -430.731128 0.000000 68.843391 0.000000 -0.330960 74.838978 -1.070936 99.942266 -3.614686 178.488701 139.457172 -0.002301 164.472549 -60.338226 -1.796750 -7.328065 79.453313 7.027705 7.602609 21.454561 0.003109 0.000018 174.451187 1.200013 166.171078 -95.468529 -3.305677 -0.051186 76.639220 2.331606 7.399062 21.454562 -0.003099 -0.000000 12.629281 -1.450442 -0.908180 15.274445 -2.767999 -2.000713 14.956154 -2.780158 -1.983972 21.090631 7.211353 16.810379 -18.099512 -24.267678 26.855941 -168.874907 -67.283795 -12.825824 9.514286 48.981424 21.566270 -89.037873 -4.644455 2.630518 -24.271039 -10.727072 43.049470 178.994648 79.163631 0.525596 -12.530443 -52.023989 2.795902 -134.112445 0.608618 -4.183766 -11.817130 5.862507 -38.264379 
276.273733 0.000000 -433.952559 0.000000 70.305621 0.000000 0.126945 74.738327 -1.191187 100.879630 -3.824819 177.722329 141.387510 1.218903 163.560395 -63.186277 -1.193491 -7.187270 83.049430 6.643899 7.775254 21.454558 0.003110 0.000018 172.214628 1.190189 166.415729 -97.694865 -3.436193 1.639850 76.561058 1.073318 7.197640 21.454557 -0.003095 -0.000001 12.710123 -1.540840 -0.956648 15.439690 -2.939942 -2.111310 15.121368 -2.952766 -2.093527 20.448589 6.687620 16.927973 -18.159569 -24.392051 27.067788 -171.099927 -66.924998 -10.519090 5.244092 48.328693 17.940090 -88.079960 -5.344290 2.634938 -24.363015 -10.936439 43.698525 178.371825 78.530313 -0.120002 -12.361588 -53.122959 3.048542 -133.445011 0.777123 -4.171763 -13.081720 6.282939 -39.558399 
276.641622 0.000000 -437.166981 0.000000 71.783151 0.000000 0.397024 74.837272 -1.251937 101.523871 -4.047948 177.303673 143.425983 2.666328 162.754933 -65.059345 -0.489849 -6.929896 86.083203 6.205062 7.826853 21.454556 0.003112 0.000017 169.410730 1.128490 166.748133 -99.147225 -3.510799 3.248898 76.560417 -0.061186 7.251428 21.454550 -0.003087 -0.000006 12.729244 -1.595523 -1.068880 15.482213 -3.033356 -2.342733 15.163912 -3.047585 -2.324378 20.109077 6.385051 17.082665 -18.193851 -24.619983 27.335490 -173.126945 -66.972503 -8.417893 1.315708 47.886048 14.743421 -87.405646 -5.949188 2.647439 -24.585423 -10.529563 45.179536 178.977756 78.091031 0.488325 -12.020861 -54.587588 2.814080 -131.449858 0.959681 -4.113350 -13.102530 6.142710 -40.738646 
276.982756 0.000000 -440.371914 0.000000 73.275043 0.000000 0.535250 75.169273 -1.257489 101.902247 -4.138328 177.240658 145.622719 4.135409 162.417937 -66.039568 0.067133 -6.581834 88.635179 5.762828 7.915300 21.454557 0.003109 0.000015 166.269481 1.003690 167.274584 -99.581336 -3.532030 4.610480 76.712941 -1.059102 7.213134 21.454548 -0.003081 -0.000009 12.692599 -1.588123 -1.250107 15.413099 -2.995216 -2.701809 15.094904 -3.011618 -2.683680 19.976480 6.266319 17.300089 -18.169953 -24.924816 27.674133 -174.837393 -67.414832 -6.648991 -1.964705 47.765506 12.021106 -87.280425 -6.252257 2.662882 -24.766247 -9.781860 46.876427 -179.771959 77.826340 1.756968 -11.463537 -56.284073 2.229683 -128.409796 1.168384 -4.016430 -11.658224 5.326199 -42.284580 
277.298042 0.000000 -443.564875 0.000000 74.780286 0.000000 0.598704 75.747869 -1.208038 102.052099 -3.956799 177.491984 148.068789 5.402681 162.780893 -66.185083 0.298622 -6.147838 90.722839 5.341515 8.223119 21.454560 0.003097 0.000014 163.038298 0.817200 168.039588 -98.802468 -3.488509 5.573826 77.007183 -1.910367 6.739192 21.454551 -0.003084 -0.000004 12.613942 -1.498480 -1.492374 15.258313 -2.786678 -3.170466 14.940328 -2.805902 -3.153600 19.910725 6.271351 17.595345 -18.058009 -25.262689 28.079269 -176.134779 -68.179502 -5.313895 -4.407605 48.022274 9.761402 -87.881732 -6.083145 2.674491 -24.733014 -9.075435 48.086416 -178.412913 77.675248 3.139190 -10.616261 -58.022892 1.399478 -124.688274 1.417078 -3.891648 -8.754082 3.915509 -44.705167 
277.588387 0.000000 -446.743384 0.000000 76.297798 0.000000 0.568884 76.513924 -1.107474 102.002484 -3.624416 177.884734 150.675420 6.414508 163.652398 -65.657911 0.218203 -5.631993 92.331610 4.929622 8.697419 21.454562 0.003092 0.000015 159.899988 0.690801 168.811800 -96.799264 -3.350837 6.188579 77.209796 -2.564625 6.078480 21.454557 -0.003091 0.000004 12.508434 -1.361829 -1.770716 15.047882 -2.481370 -3.704508 14.730179 -2.503809 -3.689487 19.772078 6.317258 17.947835 -17.849653 -25.585008 28.511814 -177.009584 -69.099908 -4.420769 -6.065088 48.558102 7.914201 -89.131242 -5.393361 2.685193 -24.334820 -8.768551 48.257191 -177.288857 77.542429 4.282974 -9.326038 -59.558995 0.212041 -120.672298 1.709372 -3.753346 -5.096128 2.437768 -48.175468 
277.854697 0.000000 -449.904958 0.000000 77.826432 0.000000 0.423989 77.409406 -0.967383 101.786208 -3.277390 178.238641 153.332421 7.168500 164.761456 -64.604201 -0.096052 -5.045461 93.444292 4.518829 9.239073 21.454559 0.003105 0.000017 157.013231 0.704601 169.343546 -93.602633 -3.090494 6.568345 77.119224 -2.997694 5.572667 21.454558 -0.003097 0.000007 12.390221 -1.215623 -2.053506 14.810428 -2.157922 -4.246573 14.493035 -2.183634 -4.233498 19.450154 6.333083 18.328134 -17.553978 -25.854490 28.931771 -177.460975 -69.998392 -3.966798 -7.050045 49.229581 6.512700 -90.866917 -4.262473 2.689866 -23.478942 -9.107382 47.032672 -176.613177 77.344777 4.969625 -7.459408 -60.666750 -1.473889 -116.688561 2.042882 -3.614659 -1.566796 1.469272 -52.530616 
278.097881 0.000000 -453.047116 0.000000 79.364987 0.000000 0.204511 78.453377 -0.811551 101.431253 -2.856149 178.478223 156.077759 7.623312 165.957150 -63.002279 -0.503505 -4.399187 94.063322 4.111788 9.802258 21.454557 0.003115 0.000018 154.487199 0.760304 169.647023 -89.227473 -2.750783 6.859529 76.926043 -3.299793 5.319456 21.454557 -0.003099 0.000006 12.266630 -1.051237 -2.299937 14.559527 -1.804200 -4.714520 14.242433 -1.832740 -4.703572 18.954185 6.313905 18.708125 -17.231963 -26.083855 29.330815 -177.577050 -70.759637 -3.857584 -7.601096 49.912392 5.831105 -92.850479 -3.161668 2.695334 -22.304705 -9.969648 44.718392 -176.171670 77.069111 5.417008 -5.026206 -61.275893 -3.719735 -112.801891 2.390134 -3.474732 0.991220 1.422756 -56.809472 
